<?xml version="1.0" standalone="no"?>
<!DOCTYPE svg PUBLIC "-//W3C//DTD SVG 20010904//EN"
 "http://www.w3.org/TR/2001/REC-SVG-20010904/DTD/svg10.dtd">
<svg version="1.0" xmlns="http://www.w3.org/2000/svg"
 width="640.000000pt" height="1280.000000pt" viewBox="0 0 640.000000 1280.000000"
 preserveAspectRatio="xMidYMid meet">
<metadata>
Created by potrace 1.15, written by Peter Selinger 2001-2017
</metadata>
<g transform="translate(0.000000,1280.000000) scale(0.100000,-0.100000)"
fill="#FFF" stroke="none">
<path d="M3025 12790 c-233 -27 -381 -79 -425 -152 -38 -62 -95 -370 -180
-962 l-49 -350 57 -79 c244 -340 514 -606 680 -670 139 -55 275 12 512 251
134 136 229 249 358 427 l51 71 -49 344 c-89 624 -143 912 -184 972 -58 87
-264 144 -551 153 -77 2 -176 0 -220 -5z"/>
<path d="M2139 11346 c-91 -37 -154 -92 -227 -198 -35 -51 -112 -205 -112
-224 0 -6 79 18 188 59 103 38 188 71 190 72 1 1 -14 36 -33 78 -19 42 -35 82
-35 89 0 8 25 38 55 68 82 81 74 98 -26 56z"/>
<path d="M4185 11359 c-4 -6 11 -26 34 -45 22 -19 50 -48 61 -64 l21 -29 -37
-81 c-20 -44 -35 -82 -33 -84 8 -8 374 -143 378 -140 9 8 -99 213 -142 270
-50 66 -132 135 -188 157 -54 22 -87 28 -94 16z"/>
<path d="M2233 11272 c-39 -15 -74 -29 -76 -32 -3 -3 19 -57 48 -120 29 -63
51 -118 49 -122 -3 -5 -14 -8 -24 -8 -10 0 -22 -4 -25 -10 -3 -5 2 -10 12 -10
34 0 81 -37 93 -75 41 -123 -120 -209 -200 -107 -30 37 -27 102 6 142 15 17
25 33 23 35 -5 5 -243 -77 -294 -101 -38 -18 -40 -22 -52 -84 -80 -434 -96
-1009 -34 -1233 10 -37 27 -77 37 -88 28 -32 254 -179 381 -249 61 -34 160
-81 220 -106 125 -51 116 -58 -19 -13 -131 44 -294 125 -427 213 -63 42 -117
73 -120 71 -8 -9 19 -126 41 -176 16 -39 18 -53 9 -86 -19 -69 -6 -97 63 -143
46 -29 73 -40 102 -40 21 0 220 -31 441 -69 l402 -68 23 36 c17 26 36 40 70
51 l47 15 -35 79 c-18 44 -34 84 -34 90 0 6 23 24 51 41 l50 30 -3 80 -3 80
40 20 c29 14 60 20 110 20 50 0 81 -6 110 -20 l40 -20 -3 -80 -3 -80 50 -30
c28 -17 51 -35 51 -41 0 -6 -16 -46 -34 -90 l-35 -79 37 -13 c39 -13 82 -54
82 -78 0 -8 10 -14 25 -14 33 0 91 -60 105 -107 7 -23 10 -106 8 -212 l-3
-174 -27 -20 c-17 -12 -48 -22 -82 -25 -45 -4 -57 -9 -75 -32 -19 -26 -19 -31
-6 -57 24 -45 19 -116 -9 -150 l-25 -29 29 -11 c16 -6 37 -24 47 -41 l19 -30
387 268 c310 215 394 269 424 272 35 3 37 6 49 50 15 62 65 168 105 223 31 43
32 49 40 186 5 77 11 145 14 149 3 5 1 30 -5 56 -9 41 -8 54 9 93 22 52 48
167 39 176 -3 3 -47 -23 -99 -58 -113 -78 -234 -143 -349 -190 -82 -34 -238
-82 -227 -70 3 3 50 23 104 45 187 75 566 302 615 368 10 14 28 68 38 120 23
110 38 344 23 353 -6 4 -39 -9 -74 -28 -323 -174 -736 21 -807 380 -7 34 -13
41 -42 50 -68 20 -100 58 -100 118 0 56 52 107 107 107 l40 0 42 86 c72 144
176 233 336 285 l80 27 -45 11 c-25 7 -51 14 -57 16 -14 5 -8 21 60 165 20 41
33 78 29 81 -4 3 -40 18 -79 32 l-73 27 -61 -92 c-207 -307 -451 -582 -616
-691 -38 -25 -99 -56 -136 -68 -75 -24 -115 -21 -207 19 -156 67 -426 346
-653 676 -120 174 -99 159 -184 128z"/>
<path d="M4200 10936 c-152 -43 -281 -147 -348 -281 -104 -208 -62 -466 104
-630 108 -107 236 -159 389 -157 150 1 278 55 383 163 101 103 143 205 150
359 4 94 1 114 -22 183 -34 100 -77 168 -152 237 -66 61 -143 104 -225 125
-66 18 -217 18 -279 1z"/>
<path d="M1450 10844 c-30 -8 -95 -34 -145 -58 -89 -44 -91 -45 -227 -52 -75
-3 -142 -10 -148 -14 -10 -6 1 -39 43 -130 l56 -121 -24 -64 c-54 -143 -95
-372 -95 -531 l0 -85 -60 -79 -60 -79 44 -26 c65 -38 157 -73 254 -97 160 -39
441 -25 584 31 25 9 26 12 17 51 -36 160 -50 534 -28 756 12 122 51 344 73
417 8 27 12 55 9 62 -12 33 -194 45 -293 19z"/>
<path d="M4723 10853 c-31 -6 -29 -13 13 -54 53 -49 109 -140 136 -217 30 -89
32 -249 4 -332 -25 -75 -58 -137 -95 -184 -28 -35 -31 -46 -31 -105 0 -70 -25
-310 -40 -374 -8 -36 -6 -39 18 -48 143 -56 424 -70 584 -31 97 24 189 59 254
97 l44 26 -60 79 -60 79 0 83 c-1 159 -42 392 -94 531 l-25 66 56 122 c41 89
52 123 43 129 -6 4 -73 11 -148 14 -136 7 -138 8 -227 52 -49 24 -117 51 -150
59 -55 14 -170 18 -222 8z"/>
<path d="M916 9493 c-3 -10 -10 -56 -16 -103 -31 -254 14 -507 132 -742 27
-55 54 -98 62 -98 39 0 64 19 70 54 10 54 91 208 141 269 87 107 230 177 361
177 45 0 64 4 63 13 0 6 -8 100 -18 207 -12 139 -20 194 -29 192 -7 -1 -77 -7
-157 -14 -176 -15 -348 -2 -500 37 -55 14 -100 25 -102 25 -1 0 -4 -8 -7 -17z"/>
<path d="M5365 9483 c-137 -36 -325 -49 -495 -35 -78 7 -146 13 -152 15 -17 3
-54 -434 -42 -483 9 -33 12 -35 44 -32 l35 3 -35 -18 c-51 -26 -230 -209 -268
-275 -29 -50 -82 -184 -82 -209 0 -5 13 -9 28 -9 79 0 214 -55 291 -118 142
-116 214 -384 153 -570 l-20 -63 21 7 c52 15 200 101 282 163 l89 67 68 244
67 245 -15 48 c-45 140 -199 289 -428 414 -93 51 -65 48 39 -5 146 -73 280
-184 348 -286 l26 -38 55 113 c112 231 156 483 126 729 -13 103 -18 120 -33
119 -7 -1 -52 -13 -102 -26z"/>
<path d="M3180 9323 c-14 -2 -45 -11 -69 -20 l-43 -16 4 -79 5 -80 -49 -30
c-57 -35 -57 -35 -9 -142 l30 -66 156 0 156 0 30 66 c48 107 48 107 -9 142
l-50 31 5 79 6 79 -44 16 c-55 19 -87 25 -119 20z"/>
<path d="M1595 9030 c-181 -38 -315 -162 -394 -369 -54 -142 -63 -275 -26
-399 18 -61 51 -87 197 -157 118 -57 211 -84 318 -92 l85 -6 -82 77 c-174 163
-205 331 -101 546 55 115 128 187 242 241 46 21 92 39 102 39 51 1 44 18 -23
63 -91 63 -197 81 -318 57z"/>
<path d="M1925 8891 c-181 -52 -323 -201 -364 -381 -26 -112 -4 -233 58 -323
38 -55 141 -152 189 -176 l36 -19 -99 3 c-107 4 -222 26 -294 57 -32 14 -46
16 -52 7 -12 -19 -28 -147 -39 -299 -16 -229 -40 -336 -170 -745 -113 -356
-147 -489 -176 -694 -20 -142 -19 -377 3 -536 13 -98 17 -201 17 -420 0 -337
-14 -473 -90 -840 -105 -511 -97 -460 -98 -690 0 -116 5 -246 12 -290 21 -136
44 -251 52 -265 7 -11 25 -8 97 13 114 35 281 72 412 91 57 8 105 17 107 18 5
5 -54 290 -85 416 -42 165 -55 276 -48 417 6 118 30 233 63 296 14 27 12 34
-36 140 -27 61 -50 114 -49 117 0 4 27 -46 59 -111 l58 -119 -24 -51 c-36 -81
-55 -189 -56 -322 -1 -138 9 -208 63 -430 66 -278 123 -653 149 -985 15 -186
14 -183 56 -229 48 -54 105 -72 240 -78 180 -9 332 31 420 109 22 19 58 42 82
53 95 41 118 123 66 228 -26 51 -27 55 -20 186 11 220 51 486 105 698 41 159
55 273 55 453 0 103 -5 201 -13 239 -11 59 -11 65 7 85 79 86 35 155 -108 167
-86 8 -155 33 -250 94 -57 36 -72 52 -114 126 -191 329 -398 426 -618 287 -58
-36 -157 -141 -194 -204 -16 -26 -30 -42 -32 -36 -6 19 69 123 136 189 l63 63
-26 117 c-89 394 -117 920 -69 1266 38 270 125 498 240 626 43 48 45 53 29 65
-16 12 -8 28 108 204 148 225 158 251 148 397 l-6 100 -35 6 c-19 4 -25 7 -14
8 12 0 246 19 520 41 275 22 509 40 522 40 18 0 22 5 22 33 0 17 8 45 18 61
17 29 17 30 -5 52 -19 19 -23 34 -23 81 0 36 6 67 15 80 14 20 13 24 -15 51
-28 28 -30 36 -30 99 0 51 5 74 20 93 18 24 18 25 0 45 -11 12 -20 38 -21 63
-2 24 -6 45 -9 47 -19 12 -792 135 -843 134 -34 0 -89 -8 -122 -18z"/>
<path d="M2939 8841 c-25 -26 -29 -37 -29 -86 0 -49 4 -60 29 -85 l28 -29 -23
-20 c-29 -25 -38 -59 -31 -117 6 -53 27 -80 71 -90 28 -6 29 -7 10 -15 -77
-28 -70 -175 9 -198 17 -5 24 -10 15 -10 -37 -2 -58 -38 -58 -96 0 -42 5 -60
20 -75 19 -19 33 -20 220 -20 187 0 201 1 220 20 15 15 20 33 20 75 0 58 -22
94 -57 96 -10 0 -2 5 17 12 41 14 60 47 60 103 0 45 -30 93 -58 95 -9 0 -2 6
17 13 50 18 71 50 71 108 0 53 -13 85 -41 106 -16 11 -15 14 12 41 25 26 29
37 29 86 0 49 -4 60 -29 86 l-29 29 -232 0 -232 0 -29 -29z"/>
<path d="M3501 8705 c-11 -53 -11 -77 -1 -128 10 -49 10 -72 2 -97 -7 -18 -12
-73 -12 -123 l0 -90 50 5 c87 9 90 15 89 207 -1 180 -7 213 -52 261 -45 48
-61 41 -76 -35z"/>
<path d="M3904 8160 l-389 -269 -8 -53 c-4 -29 -16 -65 -27 -79 -19 -26 -19
-27 0 -44 43 -39 34 -149 -15 -195 -22 -21 -23 -25 -10 -44 9 -12 15 -44 15
-77 0 -46 -5 -63 -24 -86 -24 -28 -24 -29 -5 -52 11 -14 19 -39 19 -62 0 -21
4 -39 9 -39 5 0 229 72 498 159 268 88 547 178 618 201 72 24 137 45 145 48
10 3 12 2 5 -5 -5 -6 -35 -18 -65 -28 -30 -10 -58 -20 -62 -24 -4 -3 25 -55
63 -115 65 -100 70 -111 54 -122 -16 -12 -14 -18 29 -65 117 -130 200 -350
242 -644 25 -167 24 -601 0 -810 -20 -171 -48 -341 -77 -468 l-21 -88 64 -63
c69 -68 142 -169 136 -188 -2 -6 -16 10 -32 36 -37 63 -136 168 -194 204 -107
68 -229 79 -329 32 -75 -36 -208 -177 -268 -285 -64 -114 -95 -144 -209 -201
-77 -38 -105 -47 -172 -53 -147 -12 -192 -80 -112 -167 18 -20 18 -27 8 -80
-36 -191 -19 -446 50 -739 43 -183 74 -372 90 -555 16 -185 14 -231 -15 -288
-52 -103 -27 -186 67 -227 24 -11 60 -34 82 -53 88 -78 240 -118 420 -109 135
6 192 24 240 78 42 46 40 36 61 274 29 346 78 666 140 920 55 227 66 298 66
440 0 144 -17 248 -56 332 l-24 53 59 117 c32 65 59 115 59 111 1 -3 -21 -56
-49 -116 l-49 -110 24 -61 c52 -128 69 -332 40 -506 -8 -49 -30 -155 -49 -235
-50 -208 -125 -644 -114 -656 12 -12 406 82 574 137 l91 30 11 52 c47 213 67
468 52 643 -11 130 -12 134 -75 439 -78 373 -100 529 -115 791 -10 187 -1 415
26 635 41 331 -6 646 -175 1169 -115 359 -155 518 -166 660 -11 131 2 125
-131 59 -90 -45 -122 -65 -141 -94 -33 -48 -41 -38 -10 12 69 109 94 266 63
397 -49 207 -181 339 -381 381 -150 31 -113 48 -551 -255z"/>
<path d="M2885 8052 c-76 -5 -800 -62 -872 -68 l-72 -6 5 -112 c5 -88 11 -121
29 -161 62 -130 234 -240 474 -302 81 -20 328 -63 369 -63 23 0 12 18 -23 39
l-35 20 0 187 c0 150 3 192 16 220 21 44 81 96 102 90 12 -4 22 5 32 27 8 18
29 39 46 48 l31 15 -31 35 c-27 30 -36 34 -71 31z"/>
<path d="M2957 7954 c-61 -33 -65 -160 -6 -202 16 -11 15 -14 -12 -41 -25 -26
-29 -37 -29 -86 0 -49 4 -60 29 -86 16 -16 40 -29 53 -29 21 0 20 -2 -9 -20
-60 -36 -57 -150 4 -181 l32 -16 -30 -22 c-26 -19 -29 -27 -29 -75 0 -38 6
-61 19 -77 19 -24 21 -24 219 -24 239 0 242 1 242 96 0 53 -3 60 -32 83 -25
19 -29 26 -15 26 10 0 29 11 42 25 19 19 25 35 25 70 0 56 -12 80 -48 99 -26
15 -26 15 -4 16 13 0 37 13 53 29 25 26 29 37 29 86 0 49 -4 60 -30 86 -23 24
-26 31 -14 36 37 14 59 126 34 174 -24 43 -56 49 -282 49 -171 -1 -219 -4
-241 -16z"/>
<path d="M2826 7848 c-19 -19 -39 -52 -45 -73 -12 -45 -15 -343 -3 -362 11
-17 76 -43 107 -43 l25 0 -5 233 c-2 127 -6 241 -8 252 -6 32 -35 29 -71 -7z"/>
<path d="M1806 7485 c-71 -108 -127 -197 -125 -199 2 -1 48 -26 101 -54 120
-64 237 -138 351 -226 l88 -67 45 40 c107 94 182 111 483 111 233 0 234 0 216
20 -22 25 -32 109 -15 140 16 31 0 40 -70 40 -89 0 -305 28 -429 56 -138 31
-268 78 -346 125 -73 43 -150 127 -161 174 l-9 36 -129 -196z"/>
<path d="M4195 7380 c-198 -66 -446 -147 -550 -181 -144 -47 -195 -67 -208
-85 l-18 -24 238 0 c304 0 381 -17 484 -109 l43 -38 86 65 c111 86 228 161
348 224 53 28 99 53 101 54 9 8 -135 214 -149 213 -8 0 -177 -54 -375 -119z"/>
<path d="M1652 7196 c-99 -113 -184 -332 -227 -586 -22 -129 -31 -539 -16
-736 16 -207 61 -494 97 -622 6 -22 6 -22 38 -3 80 48 270 61 346 24 95 -47
213 -167 321 -326 64 -95 99 -119 207 -143 92 -20 268 -17 283 6 51 80 120
475 153 875 28 340 28 332 1 339 -36 9 -120 80 -164 139 -24 31 -49 82 -62
123 -27 88 -64 161 -127 249 -96 134 -128 163 -227 204 l-90 37 3 46 c3 46 2
47 -57 97 -146 121 -413 311 -437 311 -7 0 -26 -15 -42 -34z"/>
<path d="M4594 7163 c-111 -76 -194 -138 -302 -227 l-73 -60 6 -48 7 -48 -57
-25 c-31 -14 -75 -31 -97 -38 -90 -27 -287 -311 -313 -450 -14 -74 -152 -226
-221 -243 -22 -6 -24 -10 -20 -53 3 -25 8 -91 11 -146 21 -377 87 -813 146
-971 17 -44 24 -53 51 -58 55 -11 192 -6 258 10 100 23 140 52 203 146 119
178 253 305 353 334 82 24 255 2 319 -40 l23 -15 21 87 c24 104 55 285 73 437
17 147 18 688 0 810 -29 206 -93 407 -169 537 -40 69 -90 128 -107 128 -7 0
-57 -30 -112 -67z"/>
<path d="M2730 7071 c-256 -6 -279 -8 -333 -30 -32 -12 -77 -37 -100 -54 -48
-36 -97 -124 -97 -172 0 -30 4 -33 71 -60 38 -15 71 -26 73 -24 2 2 16 28 32
58 18 33 44 64 68 80 l40 26 710 0 c391 0 722 -3 736 -7 34 -10 87 -63 112
-112 11 -23 22 -43 24 -45 1 -2 35 9 73 24 67 26 71 30 71 59 0 74 -64 162
-149 206 -90 45 -123 48 -601 53 -250 2 -579 1 -730 -2z"/>
<path d="M2475 6868 c-27 -14 -85 -70 -85 -81 0 -4 28 -40 62 -80 85 -99 165
-225 199 -314 38 -96 86 -169 158 -235 49 -46 152 -108 178 -108 4 0 10 187
12 415 l3 415 -253 0 c-166 -1 -261 -4 -274 -12z"/>
<path d="M3410 6465 c0 -228 3 -415 6 -415 24 0 126 62 174 106 74 69 119 137
162 244 37 94 128 233 214 329 l57 62 -29 30 c-55 58 -61 59 -334 59 l-250 0
0 -415z"/>
<path d="M3017 6854 c-4 -4 -7 -1078 -7 -2385 l0 -2379 29 -107 c41 -149 96
-307 121 -347 37 -61 60 -56 99 22 28 57 80 208 120 353 l21 75 -2 2385 -3
2384 -186 3 c-102 1 -188 -1 -192 -4z"/>
<path d="M2920 6021 c-25 -7 -25 -9 -37 -171 -33 -466 -79 -779 -144 -980
l-21 -65 -86 -49 -85 -49 46 -23 c81 -42 97 -92 51 -159 -25 -38 -25 -39 -13
-126 15 -111 6 -425 -15 -524 -8 -38 -31 -139 -50 -224 -20 -85 -38 -180 -42
-211 l-6 -56 108 -19 c60 -10 169 -33 242 -50 l132 -32 0 1373 0 1374 -27 -1
c-16 -1 -39 -4 -53 -8z"/>
<path d="M3410 4586 l0 -1444 83 -22 c99 -27 256 -56 356 -66 l73 -7 -7 84
c-11 140 -44 356 -76 499 -17 74 -39 176 -50 225 -26 116 -37 417 -20 544 12
87 12 88 -13 126 -46 67 -30 117 51 159 l46 23 -87 49 -87 49 -24 80 c-34 113
-71 303 -94 495 -22 175 -51 513 -51 591 0 44 -2 47 -31 53 -17 3 -40 6 -50 6
-18 0 -19 -39 -19 -1444z"/>
<path d="M2357 2542 c-28 -31 -107 -69 -192 -94 -68 -19 -104 -22 -235 -22
-167 -1 -245 14 -287 54 -12 11 -29 20 -36 20 -8 0 -55 -26 -103 -58 -224
-147 -353 -302 -384 -459 -17 -83 5 -188 61 -303 35 -69 59 -102 133 -175 121
-119 131 -125 193 -94 30 15 56 37 68 59 54 93 191 196 301 224 105 28 224 87
262 130 28 32 32 44 32 94 0 52 3 61 33 90 18 17 59 41 92 52 109 38 171 98
201 196 23 79 19 97 -47 197 -78 116 -72 111 -92 89z"/>
<path d="M3956 2460 c-71 -108 -76 -125 -52 -204 29 -96 103 -169 200 -196 25
-7 63 -28 86 -47 38 -33 40 -37 40 -93 0 -53 4 -64 33 -96 37 -43 156 -102
261 -130 110 -28 247 -131 301 -224 12 -22 38 -44 68 -59 62 -31 72 -25 193
94 74 73 98 106 133 175 56 115 78 220 61 303 -31 156 -161 313 -384 459 -48
32 -95 58 -103 58 -7 0 -24 -9 -36 -20 -42 -40 -120 -55 -287 -54 -130 0 -167
3 -233 22 -89 25 -141 50 -184 86 l-30 25 -67 -99z"/>
<path d="M2653 2536 c-87 -6 -157 -16 -164 -23 -8 -8 -1 -27 31 -73 42 -62 42
-64 38 -131 -7 -86 -42 -162 -103 -218 -42 -39 -70 -54 -173 -97 -52 -21 -60
-35 -60 -96 0 -83 -41 -132 -163 -194 -38 -18 -103 -43 -146 -55 -124 -33
-236 -117 -298 -220 -24 -40 -113 -89 -161 -89 -85 0 -285 210 -349 368 -76
186 -54 349 67 510 26 34 45 62 43 62 -2 0 -55 -20 -117 -44 -682 -263 -824
-622 -364 -921 386 -252 1115 -431 1976 -485 225 -15 755 -15 980 0 1145 72
2044 368 2212 727 98 208 -41 413 -402 593 -70 35 -300 130 -315 130 -2 0 17
-28 43 -62 26 -35 61 -92 77 -128 27 -58 30 -75 30 -165 0 -148 -38 -252 -141
-385 -83 -108 -197 -200 -248 -200 -48 0 -137 49 -161 89 -62 103 -174 187
-298 220 -43 12 -108 37 -146 55 -122 62 -163 111 -163 194 0 61 -8 75 -60 96
-118 49 -142 63 -184 108 -58 62 -86 126 -92 211 -5 67 -4 68 41 137 l47 69
-33 5 c-39 7 -346 26 -405 26 l-42 0 0 -244 0 -243 -39 -139 c-78 -275 -136
-384 -206 -384 -68 0 -122 97 -203 364 l-36 121 -4 263 -3 262 -77 -1 c-42 -1
-145 -7 -229 -13z"/>
<path d="M331 1464 c-78 -122 -138 -247 -151 -311 -15 -69 5 -167 52 -257 43
-82 205 -244 321 -320 444 -291 1180 -488 2087 -558 212 -16 914 -16 1120 0
736 59 1311 186 1785 394 206 91 360 192 490 323 113 112 156 181 181 293 20
90 9 147 -50 265 -44 87 -147 257 -156 257 -3 0 -18 -25 -34 -56 -65 -124
-240 -264 -467 -373 -400 -193 -951 -317 -1684 -377 -293 -24 -957 -24 -1250
0 -864 71 -1513 240 -1893 493 -107 71 -218 182 -257 256 -17 31 -32 57 -35
57 -3 0 -30 -39 -59 -86z"/>
</g>
</svg>
